<?xml version="1.0" encoding="UTF-8" standalone="no"?>
<svg
   xmlns:dc="http://purl.org/dc/elements/1.1/"
   xmlns:cc="http://creativecommons.org/ns#"
   xmlns:rdf="http://www.w3.org/1999/02/22-rdf-syntax-ns#"
   xmlns:svg="http://www.w3.org/2000/svg"
   xmlns="http://www.w3.org/2000/svg"
   version="1.1"
   id="svg2"
   viewBox="0 0 744.09448819 1052.3622047"
   height="297mm"
   width="210mm">
  <defs
     id="defs4" />
  <metadata
     id="metadata7">
    <rdf:RDF>
      <cc:Work
         rdf:about="">
        <dc:format>image/svg+xml</dc:format>
        <dc:type
           rdf:resource="http://purl.org/dc/dcmitype/StillImage" />
        <dc:title></dc:title>
      </cc:Work>
    </rdf:RDF>
  </metadata>
  <g
     id="layer1">
    <g
       style="fill:none;fill-rule:evenodd;stroke:none;stroke-width:1px;stroke-linecap:butt;stroke-linejoin:round;stroke-opacity:1"
       id="g3408" />
    <path
       d="m 358.91981,417.80502 c 0.45709,25.78207 0.24654,51.56362 -0.56626,77.33542 -3.17471,47.29755 -9.68291,94.30059 -15.56671,141.31767 -6.50698,46.46091 -13.24414,92.89486 -20.4817,139.24853 -2.85785,20.33515 -6.52728,40.55177 -9.13869,60.92176 -0.86995,6.49266 -1.01861,13.0449 -1.0405,19.58562 0.0251,3.80939 0.008,1.9333 0.0505,5.62828 0,0 -26.51439,13.53177 -26.51439,13.53177 l 0,0 c -0.006,-3.72653 -0.004,-1.83404 -0.008,-5.67746 1.2e-4,-6.73432 0.0606,-13.48873 1.18693,-20.15153 3.64277,-20.78534 8.42009,-41.36128 11.69703,-62.21521 8.1081,-46.42583 15.1421,-93.03579 21.66276,-139.70962 5.64652,-46.70418 11.84974,-93.41079 14.34236,-140.41861 0.39602,-25.21446 0.60304,-50.52073 -2.03513,-75.63604 0,0 26.41195,-13.76058 26.41195,-13.76058 z"
       id="path3426"
       style="fill:#008000" />
    <path
       d="m 298.02148,393.7536 c 12.65922,-4.29837 25.60915,-7.324 38.70574,-9.94512 37.0096,-6.19489 74.68932,-6.48704 112.11202,-7.21361 36.38093,-0.35405 73.0363,-1.08172 109.21019,3.62564 6.01529,0.78277 11.97752,1.92999 17.96628,2.89498 19.63826,4.45107 39.71677,9.38216 57.46876,19.26379 2.10994,1.17449 4.09631,2.55837 6.14447,3.83755 13.05909,9.46396 16.46253,19.95904 20.42312,35.00806 2.48451,12.9742 4.19904,26.5518 1.50668,39.6698 -1.51289,7.37129 -3.28619,10.3134 -6.33192,17.02011 -1.96806,2.59061 -3.68083,5.3967 -5.90418,7.77183 -2.44226,2.60898 -5.01827,5.17792 -8.02549,7.10874 -11.12984,7.14609 -22.60298,13.76697 -34.25001,20.03488 -12.26207,6.5989 -29.62477,10.10141 -43.03845,13.32106 -37.36964,7.79225 -75.56234,10.07875 -113.32084,15.31907 -12.56349,1.90755 -25.05007,4.2661 -37.5361,6.61491 0,0 22.65242,-17.06772 22.65242,-17.06772 l 0,0 c 12.1383,-1.97623 24.27531,-3.96702 36.45737,-5.66043 37.77306,-4.77825 75.96897,-7.11312 113.17318,-15.58864 11.90542,-3.08792 19.63363,-4.70865 30.98151,-9.05147 4.21466,-1.61295 14.34416,-9.55256 12.374,-5.49259 -2.31712,4.77495 -8.57348,6.68312 -13.67023,8.16376 -6.27417,1.8227 20.86145,-13.16113 14.07417,-13.64202 3.07717,-6.09717 5.23128,-9.51452 6.86241,-16.27264 3.06919,-12.71633 1.51947,-25.99172 -1.15547,-38.59081 -3.73777,-13.62965 -7.7683,-24.44545 -19.59234,-33.0188 -18.53523,-11.99434 -39.72184,-18.76742 -61.20609,-23.36671 -5.87027,-0.98395 -11.71214,-2.15559 -17.6108,-2.95185 -35.93254,-4.85053 -72.37097,-4.22989 -108.52592,-3.71305 -37.92215,0.97576 -76.1352,1.67868 -113.50052,8.87964 -13.49544,3.07813 -27.09648,6.30283 -39.86093,11.773 0,0 23.41697,-18.73136 23.41697,-18.73136 z"
       id="path3428"
       style="fill:#008000" />
    <path
       d="m 424.8259,588.04254 c 25.07124,-5.16171 50.63256,-7.76067 76.09164,-10.17672 33.14929,-1.93952 66.44117,-5.1968 99.69135,-3.86853 21.30955,0.85128 30.06765,2.5644 50.95648,5.44872 19.86981,3.53626 39.50531,8.35561 58.50812,15.1877 7.26257,2.61112 15.2911,5.86884 22.08974,9.70058 2.41724,1.36237 4.63785,3.04744 6.95677,4.57116 9.7606,8.61483 12.11838,16.90715 11.63603,29.50382 -0.59878,2.08076 -0.93676,4.25503 -1.79635,6.2423 -6.46184,14.93915 -23.1058,26.10646 -36.73796,33.45818 -15.0199,8.10011 -30.37705,15.55866 -45.56558,23.338 -10.70748,3.93913 -21.32933,8.11929 -32.12242,11.81739 -27.15945,9.30579 -67.66083,21.62492 -94.43221,29.34596 -43.9684,12.68078 -75.55393,20.99362 -120.2628,31.94988 -20.86226,5.11247 -41.80941,9.87205 -62.71412,14.80808 -73.51394,16.88695 -147.61009,31.33692 -222.16194,42.83095 -32.51425,5.01288 -42.346797,6.08449 -73.443967,10.05416 -23.53617,2.8791 -47.137767,5.14224 -70.7987222,6.6622 0,0 22.8102512,-16.73328 22.8102512,-16.73328 l 0,0 c 22.43803,-0.59515 44.843991,-2.00283 67.183811,-4.21863 30.072307,-3.16407 39.471487,-3.9266 70.965697,-8.31018 73.75948,-10.26634 146.89848,-24.51285 219.50464,-41.00746 20.89633,-4.94385 41.84694,-9.66368 62.689,-14.83156 43.81491,-10.8641 78.63373,-20.29335 121.72913,-33.18668 29.79615,-8.91444 67.70133,-21.01731 97.37234,-31.81289 11.26961,-4.10037 22.33438,-8.74322 33.50157,-13.11484 0.24326,0.69258 0.0571,2.37145 0.7298,2.07773 12.22469,-5.33736 29.17008,-18.24347 35.43235,-30.72206 0.87141,-1.73642 1.29363,-3.66395 1.94044,-5.49593 0.87552,-11.37491 -1.07472,-19.17241 -9.66474,-27.19316 -2.12754,-1.51019 -4.15606,-3.1706 -6.38263,-4.53057 -6.28509,-3.8389 -14.11513,-7.38303 -20.85922,-10.03974 -18.35923,-7.2323 -37.47239,-12.23735 -56.88926,-15.68726 -21.51043,-3.02559 -28.49798,-4.57036 -50.52695,-5.32394 -33.49198,-1.14572 -67.0259,2.20999 -100.37173,4.69687 -26.36758,2.977 -52.90946,6.02931 -78.66658,12.6118 0,0 23.60802,-18.05205 23.60802,-18.05205 z"
       id="path3430"
       style="fill:#008000" />
    <path
       d="m 61.655042,905.76682 c 9.025712,-10.80466 16.243691,-22.12601 23.265473,-33.49752 16.603415,-28.01511 28.665475,-57.06727 38.486225,-86.30823 2.71116,-8.07237 5.10615,-16.18583 7.65922,-24.27874 3.23008,-9.7062 6.55579,-19.39989 9.69024,-29.11859 14.38909,-44.61498 5.24352,-18.46801 20.25872,-63.743 10.02062,-30.21496 20.90023,-60.30982 31.77456,-90.40525 10.66443,-31.69533 21.70202,-63.6202 23.16875,-96.14034 0.87548,-19.41099 -0.508,-22.30336 -3.45634,-41.3021 -3.61176,-16.74185 -9.97328,-33.16958 -18.18966,-49.2321 -1.97632,-3.86358 -4.25476,-7.66286 -6.38213,-11.4943 0,0 23.22054,-8.07032 23.22054,-8.07032 l 0,0 c 9.84199,20.23345 18.64722,40.70069 22.64978,61.78137 2.7244,18.95159 4.13766,22.36614 3.08327,41.69676 -1.7923,32.85927 -13.57181,65.01404 -24.97452,96.95142 -11.34643,30.16736 -22.80942,60.31844 -32.81447,90.67865 -8.0534,24.43797 -12.15851,39.01191 -19.29643,63.44241 -2.79484,9.56571 -5.56788,19.13394 -8.35181,28.70092 -10.84637,36.98472 -22.37546,74.07532 -42.08775,109.66041 -6.2535,11.01012 -12.255051,22.14056 -20.544522,32.62151 0,0 -27.159146,8.05704 -27.159146,8.05704 z"
       id="path3432"
       style="fill:#000000" />
    <path
       d="m 34.062855,423.49008 c 20.529012,2.99595 41.323475,3.31718 62.012026,3.89466 21.359219,0.58663 42.795109,0.62126 64.025909,-2.26715 14.75645,-2.00759 18.51186,-3.25396 33.11226,-6.66846 38.29999,-10.40729 74.83282,-26.80951 110.91876,-43.61613 39.44917,-18.79107 78.32129,-38.87224 117.61859,-58.00892 28.75311,-12.93647 57.10827,-27.51143 87.15004,-36.97557 4.30247,-1.35543 8.67947,-2.43379 13.0192,-3.65068 10.24438,-2.34186 20.62912,-4.71633 31.13499,-5.33481 7.20191,-0.42399 11.37729,0.12867 18.57039,0.66162 0,0 -22.19684,16.74953 -22.19684,16.74953 l 0,0 c -7.70345,-0.40808 -10.64097,-0.80615 -18.30575,-0.2652 -10.2069,0.72036 -20.3014,2.86263 -30.26387,5.18519 -4.22292,1.18792 -8.48063,2.24662 -12.66877,3.56378 -29.65633,9.32678 -57.7238,23.51077 -86.03527,36.45218 -39.30183,19.11218 -78.1631,39.20385 -117.6237,57.95474 -36.3879,16.86405 -73.2039,33.40684 -111.84764,43.69754 -15.20928,3.45632 -18.04134,4.48326 -33.37424,6.46977 -21.40607,2.77334 -42.986422,2.67341 -64.510906,2.24018 -21.368691,-0.36965 -42.74904,-0.81024 -64.06246,-2.59208 0,0 23.327281,-17.49019 23.327281,-17.49019 z"
       id="path3434"
       style="fill:#000000" />
    <path
       d="m 54.966614,690.53169 c 26.470868,-3.70845 52.158506,-12.65703 77.790866,-20.62381 35.66555,-11.857 72.18804,-20.60962 107.49993,-33.79413 6.95027,-2.59505 13.79919,-5.51699 20.69878,-8.27548 31.57217,-14.87725 15.61751,-6.8834 47.82273,-24.08391 0,0 -25.64395,22.8173 -25.64395,22.8173 l 0,0 c -32.82976,17.43581 -16.52235,9.28826 -48.88835,24.52702 -6.92035,2.71089 -13.79328,5.57772 -20.76104,8.1327 -35.4363,12.99404 -72.00899,21.76881 -107.69303,33.84003 -26.73219,8.4917 -53.425003,18.05816 -81.008742,22.46323 0,0 30.182806,-25.00295 30.182806,-25.00295 z"
       id="path3436"
       style="fill:#000000" />
    <path
       d="m 64.323665,388.97447 c 5.616388,0.12333 11.235068,0.0745 16.85235,0.0538 4.468196,-0.0188 8.936421,-0.0278 13.404651,-0.0324 4.039075,0.8277 8.100744,1.44464 12.210544,1.76606 3.88869,-0.17709 7.5432,0.62743 11.30908,1.4096 3.9891,0.72124 8.05921,0.76943 12.10054,0.84876 4.26971,0.0556 8.53993,0.0367 12.80987,0.0285 4.05809,-0.009 8.11618,-0.0118 12.17427,-0.0137 3.99091,0.43364 7.7334,-0.47813 11.62447,-1.11577 3.73408,-0.04 7.23803,-1.1706 10.84858,-1.95159 0,0 -23.80827,18.10334 -23.80827,18.10334 l 0,0 c -3.61809,0.8201 -7.25808,1.35318 -10.93643,1.82755 -3.96193,0.68748 -7.89917,0.89038 -11.92429,0.7178 -4.05572,0.002 -8.11142,0.007 -12.16713,0.009 -4.27609,-0.002 -8.55295,-5.2e-4 -12.82776,-0.11917 -4.18482,-0.14627 -8.397353,-0.29247 -12.497172,-1.22424 -3.661683,-0.77286 -7.334188,-0.95583 -11.066501,-1.1693 -4.025867,-0.44376 -7.996808,-1.30782 -12.03961,-1.54227 -4.438521,-0.005 -8.877037,-0.0135 -13.315523,-0.0324 -5.666674,-0.0211 -11.334625,-0.0677 -17.000459,0.0538 0,0 24.24879,-17.61777 24.24879,-17.61777 z"
       id="path3452"
       style="fill:#800000" />
    <path
       d="m 364.83043,822.46145 c 6.71388,-1.24134 13.09695,-3.62699 19.59873,-5.63542 7.6673,-2.78599 15.47551,-5.11375 23.3334,-7.29646 5.50429,-1.24759 10.47576,-3.82512 15.61462,-6.02003 0.40186,-0.17164 10.31081,-3.95474 10.61341,-4.07041 11.06641,-4.1456 22.12577,-8.30059 33.11698,-12.64672 4.12134,-1.27404 7.95122,-3.17656 11.71563,-5.23961 0,0 -23.10334,18.50996 -23.10334,18.50996 l 0,0 c -3.78304,1.78517 -7.62656,3.40925 -11.58758,4.7693 -11.00803,4.26666 -22.05969,8.41219 -33.09255,12.61239 -8.87808,3.47475 -17.47199,7.72515 -26.73366,10.12866 -7.80412,2.21625 -15.53507,4.63285 -23.19332,7.31254 -6.61982,2.1537 -13.28745,4.0782 -19.97705,5.98415 0,0 23.69473,-18.40835 23.69473,-18.40835 z"
       id="path3460"
       style="fill:#800000" />
    <path
       d="m 629.74382,551.90609 c 4.04758,-3.11645 8.28727,-5.96481 12.47339,-8.88794 3.26111,-2.57022 6.26984,-5.44253 9.38364,-8.18612 3.39325,-3.5374 7.16238,-6.67844 10.79186,-9.96581 3.06737,-2.96852 6.20123,-5.85579 7.96839,-9.79639 1.80581,-4.24013 2.50471,-8.75523 2.92371,-13.30881 0.19664,-3.26906 0.18059,-1.66825 0.0682,-4.8022 0,0 26.48621,-13.70564 26.48621,-13.70564 l 0,0 c 0.30087,3.47246 0.26896,1.74187 0.10211,5.19164 -0.31972,4.71504 -0.69903,9.52166 -2.45741,13.95783 -1.32007,4.6614 -4.0987,7.87304 -7.54932,11.19574 -3.53685,3.2795 -7.2911,6.35351 -10.65261,9.79559 -2.85802,3.1137 -6.38276,5.52917 -9.32844,8.57441 -3.90923,3.21201 -8.38368,5.65873 -12.36667,8.76407 0,0 -27.84303,11.17363 -27.84303,11.17363 z"
       id="path3470"
       style="fill:#800000" />
    <path
       d="m 305.39335,427.55505 c -7.75568,1.17699 -15.4149,2.55838 -23.02572,4.46114 -1.19754,0.28365 -2.39508,0.56731 -3.59262,0.85096 0,0 23.53055,-17.93932 23.53055,-17.93932 l 0,0 c 1.17309,-0.27296 2.34619,-0.54592 3.51929,-0.81887 7.74,-1.80421 15.60278,-2.8878 23.33159,-4.72454 0,0 -23.76309,18.17063 -23.76309,18.17063 z"
       id="path3484"
       style="fill:#800000" />
    <path
       d="m 451.95697,345.83498 c 16.42142,-10.3871 32.75487,-21.53072 51.50873,-27.07697 12.39636,-3.09275 25.08207,-4.88416 37.67148,-7.01398 0,0 -23.00618,17.30287 -23.00618,17.30287 l 0,0 c -12.6272,2.07456 -25.35664,3.95572 -37.66491,7.53166 -12.97588,4.44524 -23.93818,11.78143 9.2841,-7.83763 2.49416,-1.47291 -4.87877,3.12698 -7.38026,4.58741 -0.83338,0.48656 -1.71328,0.88867 -2.56992,1.333 0,0 -27.84304,11.17364 -27.84304,11.17364 z"
       id="path3506"
       style="fill:#800000" />
    <path
       d="m 265.83548,664.87765 c 6.16291,-2.82536 12.40139,-5.47428 18.60071,-8.21802 3.62632,-1.44472 7.38591,-2.41244 11.05702,-3.7301 0,0 -23.35742,18.17948 -23.35742,18.17948 l 0,0 c -3.65049,1.19524 -7.342,2.30026 -10.84977,3.88544 -6.36671,2.79584 -12.67883,5.73969 -19.14527,8.29155 0,0 23.69473,-18.40835 23.69473,-18.40835 z"
       id="path3508"
       style="fill:#800000" />
  </g>
</svg>
